<?xml version="1.0" encoding="UTF-8" standalone="no"?><!-- Generator: Gravit.io --><svg xmlns="http://www.w3.org/2000/svg" xmlns:xlink="http://www.w3.org/1999/xlink" style="isolation:isolate" viewBox="0 0 1024 768" width="1024pt" height="768pt"><defs><clipPath id="_clipPath_s5YBGmUfxbMwiLpIxfcYz5kAI0qflyXj"><rect width="1024" height="768"/></clipPath></defs><g clip-path="url(#_clipPath_s5YBGmUfxbMwiLpIxfcYz5kAI0qflyXj)"><rect width="1024" height="768" style="fill:rgb(32,28,28)"/><g><defs><linearGradient id="_lgradient_1" x1="0" y1="0.5" x2="1" y2="0.5"><stop offset="32.916666666666664%" style="stop-color:rgba(255,255,255,0)"/><stop offset="100%" style="stop-color:rgba(255,255,255,0.82)"/></linearGradient></defs><path d="M 363.532 341 L 744.978 341 C 768.722 341 788 360.278 788 384.022 L 788 385.978 C 788 409.722 768.722 429 744.978 429 L 363.532 429 C 339.788 429 320.51 409.722 320.51 385.978 L 320.51 384.022 C 320.51 360.278 339.788 341 363.532 341 Z" style="stroke:none;fill:url(#_lgradient_1);stroke-miterlimit:10;"/><clipPath id="_clipPath_40PxR8vgfKefWhSvqfMlm9Vn194bUSZv"><path d="M 363.532 341 L 744.978 341 C 768.722 341 788 360.278 788 384.022 L 788 385.978 C 788 409.722 768.722 429 744.978 429 L 363.532 429 C 339.788 429 320.51 409.722 320.51 385.978 L 320.51 384.022 C 320.51 360.278 339.788 341 363.532 341 Z" style="stroke:none;fill:url(#_lgradient_1);stroke-miterlimit:10;"/></clipPath><g clip-path="url(#_clipPath_40PxR8vgfKefWhSvqfMlm9Vn194bUSZv)"><circle vector-effect="non-scaling-stroke" cx="783.351" cy="400.351" r="3.649000000000001" fill="rgb(235,235,235)" fill-opacity="0.15"/><circle vector-effect="non-scaling-stroke" cx="785.5607499999998" cy="375.3642500000001" r="5.560749999999871" fill="rgb(235,235,235)" fill-opacity="0.15"/><circle vector-effect="non-scaling-stroke" cx="761.9492499999999" cy="346.1964999999999" r="5.1965000000000146" fill="rgb(235,235,235)" fill-opacity="0.15"/></g><circle vector-effect="non-scaling-stroke" cx="764.8985000000001" cy="369.8035000000002" r="5.1965000000000146" fill="rgb(235,235,235)" fill-opacity="0.15"/><circle vector-effect="non-scaling-stroke" cx="774" cy="364.70500000000015" r="1.0000000000001137" fill="rgb(235,235,235)" fill-opacity="0.15"/><path d=" M 302.613 410.363 C 302.613 411.839 302.039 412.413 300.645 412.413 L 294.167 412.413 C 292.691 412.413 292.035 411.839 292.035 410.363 L 292.035 387.485 L 268.747 387.485 L 268.747 410.363 C 268.747 411.839 268.091 412.413 266.697 412.413 L 260.301 412.413 C 258.825 412.413 258.087 411.839 258.087 410.363 L 258.087 357.637 C 258.087 356.243 258.989 355.669 260.301 355.669 L 266.697 355.669 C 268.009 355.669 268.747 356.161 268.747 357.637 L 268.747 379.039 L 292.035 379.039 L 292.035 357.637 C 292.035 356.243 292.855 355.669 294.167 355.669 L 300.645 355.669 C 301.957 355.669 302.613 356.161 302.613 357.637 L 302.613 410.363 Z  M 360.956 356.653 C 360.956 356.899 360.874 357.309 360.628 357.719 L 343.736 388.961 L 343.736 410.527 C 343.736 411.757 343.08 412.413 341.85 412.413 L 334.962 412.413 C 333.732 412.413 333.076 411.757 333.076 410.363 L 333.076 389.371 L 315.282 357.637 C 315.118 357.309 315.036 357.063 315.036 356.817 C 315.036 356.161 315.61 355.669 316.512 355.669 L 323.974 355.669 C 325.45 355.669 326.434 356.161 327.008 357.227 L 338.816 380.433 L 338.98 380.433 L 350.624 357.391 C 351.28 356.079 351.936 355.669 353.494 355.669 L 359.398 355.669 C 360.382 355.669 360.956 355.997 360.956 356.653 L 360.956 356.653 Z  M 420.365 384.287 C 420.365 394.127 417.003 401.507 411.427 406.263 C 406.343 410.527 399.209 412.413 391.091 412.413 L 375.429 412.413 C 373.789 412.413 373.051 412.003 373.051 410.117 L 373.051 358.129 C 373.051 356.407 373.543 355.669 375.593 355.669 L 387.401 355.669 C 396.831 355.669 403.227 356.735 408.639 359.851 C 416.019 364.115 420.365 372.151 420.365 384.287 L 420.365 384.287 Z  M 409.049 384.205 C 409.049 376.743 406.835 371.085 402.653 367.969 C 399.291 365.509 394.945 364.607 389.697 364.607 L 383.711 364.607 L 383.711 388.778 L 383.711 403.557 L 390.025 403.557 C 395.683 403.557 400.439 402.655 403.883 399.211 C 407.163 395.931 409.049 391.011 409.049 384.205 L 409.049 384.205 Z  M 475.346 411.429 C 475.346 412.085 474.854 412.413 474.116 412.413 L 466.654 412.413 C 465.178 412.413 464.194 412.003 463.456 410.773 L 451.648 391.503 L 445.334 391.503 L 445.334 410.363 C 445.334 411.593 444.842 412.413 443.448 412.413 L 436.724 412.413 C 435.33 412.413 434.756 411.757 434.756 410.363 L 434.756 358.047 C 434.756 356.243 435.166 355.669 436.97 355.669 L 449.106 355.669 C 456.24 355.669 463.784 356.735 468.13 361.737 C 470.754 364.771 472.066 368.789 472.066 373.217 C 472.066 380.761 468.048 386.665 461.488 389.535 L 474.936 410.281 C 475.182 410.691 475.346 411.101 475.346 411.429 L 475.346 411.429 Z  M 461.324 373.381 C 461.324 366.247 456.568 363.705 449.434 363.705 L 445.334 363.705 L 445.334 383.549 L 450.418 383.549 C 456.978 383.549 461.324 380.023 461.324 373.381 L 461.324 373.381 Z  M 534.263 411.101 C 534.263 411.921 533.853 412.413 532.787 412.413 L 525.489 412.413 C 523.767 412.413 523.193 411.757 522.701 410.445 L 518.437 398.391 L 497.691 398.391 L 493.427 410.691 C 493.099 411.757 492.525 412.413 491.213 412.413 L 483.915 412.413 C 483.095 412.413 482.767 412.003 482.767 411.347 C 482.767 411.101 482.767 410.773 482.931 410.445 L 502.939 357.309 C 503.349 356.325 503.923 355.669 505.153 355.669 L 511.713 355.669 C 512.943 355.669 513.681 356.243 514.009 357.145 L 534.099 410.035 C 534.263 410.445 534.263 410.773 534.263 411.101 L 534.263 411.101 Z  M 515.649 390.437 L 509.827 373.135 C 509.089 370.839 508.597 369.117 508.187 367.805 L 508.023 367.805 C 507.613 369.199 507.121 370.921 506.301 373.217 L 500.479 390.437 L 515.649 390.437 L 515.649 390.437 Z  M 593.508 410.199 C 593.508 412.003 592.77 412.413 591.54 412.413 L 586.046 412.413 C 584.816 412.413 583.75 411.839 582.93 410.691 L 556.198 374.119 L 556.034 374.119 L 556.034 410.281 C 556.034 411.839 555.296 412.413 553.902 412.413 L 547.998 412.413 C 546.44 412.413 545.784 412.003 545.784 410.363 L 545.784 357.883 C 545.784 356.161 546.522 355.669 547.998 355.669 L 553.328 355.669 C 554.64 355.669 555.296 356.079 556.116 357.227 L 583.094 394.291 L 583.258 394.291 L 583.258 357.801 C 583.258 356.243 583.996 355.669 585.39 355.669 L 591.54 355.669 C 593.262 355.669 593.508 356.571 593.508 357.883 L 593.508 410.199 Z  M 654.885 406.509 C 654.885 408.149 654.475 408.805 652.917 409.625 C 648.407 411.921 640.781 413.397 634.549 413.397 C 617.493 413.397 607.817 401.589 607.817 384.205 C 607.817 367.067 618.887 354.603 635.615 354.603 C 640.863 354.603 645.701 355.505 650.621 357.719 C 651.523 358.129 651.769 358.621 651.769 359.195 C 651.769 359.523 651.605 359.851 651.523 360.179 L 649.637 365.099 C 649.309 365.919 648.981 366.247 648.407 366.247 C 648.079 366.247 647.669 366.083 647.259 365.919 C 644.553 364.771 639.879 363.541 636.107 363.541 C 631.679 363.541 627.415 365.181 624.545 368.215 C 621.101 371.823 619.133 377.153 619.133 383.877 C 619.133 396.587 625.119 404.541 634.959 404.541 C 638.321 404.541 642.011 404.049 644.225 403.147 L 644.225 387.485 L 636.927 387.485 C 635.779 387.485 635.123 387.075 635.123 385.681 L 635.123 380.679 C 635.123 379.367 635.779 379.039 637.009 379.039 L 652.917 379.039 C 654.311 379.039 654.885 379.449 654.885 380.925 L 654.885 406.509 L 654.885 406.509 Z  M 705.438 410.445 C 705.438 411.757 704.864 412.413 703.47 412.413 L 673.048 412.413 C 671.408 412.413 670.834 412.003 670.834 410.199 L 670.834 357.719 C 670.834 356.407 671.408 355.669 672.72 355.669 L 703.634 355.669 C 704.946 355.669 705.356 356.161 705.356 357.063 L 705.356 357.555 L 704.782 362.475 C 704.618 363.951 703.716 364.197 701.994 364.197 L 681.412 364.197 L 681.412 379.039 L 700.354 379.039 C 701.912 379.039 702.404 379.695 702.404 380.843 L 702.404 385.517 C 702.404 386.911 701.83 387.485 700.436 387.485 L 681.412 387.485 L 681.412 403.885 L 703.388 403.885 C 704.782 403.885 705.438 404.459 705.438 405.771 L 705.438 410.445 L 705.438 410.445 Z  M 765.913 411.101 C 765.913 411.921 765.503 412.413 764.437 412.413 L 757.139 412.413 C 755.417 412.413 754.843 411.757 754.351 410.445 L 750.087 398.391 L 729.341 398.391 L 725.077 410.691 C 724.749 411.757 724.175 412.413 722.863 412.413 L 715.565 412.413 C 714.745 412.413 714.417 412.003 714.417 411.347 C 714.417 411.101 714.417 410.773 714.581 410.445 L 734.589 357.309 C 734.999 356.325 735.573 355.669 736.803 355.669 L 743.363 355.669 C 744.593 355.669 745.331 356.243 745.659 357.145 L 765.749 410.035 C 765.913 410.445 765.913 410.773 765.913 411.101 L 765.913 411.101 Z  M 747.299 390.437 L 741.477 373.135 C 740.739 370.839 740.247 369.117 739.837 367.805 L 739.673 367.805 C 739.263 369.199 738.771 370.921 737.951 373.217 L 732.129 390.437 L 747.299 390.437 L 747.299 390.437 Z " fill="rgb(255,255,255)"/><circle vector-effect="non-scaling-stroke" cx="771.2404999999999" cy="390.1964999999999" r="5.1965000000000146" fill="rgb(235,235,235)" fill-opacity="0.15"/><circle vector-effect="non-scaling-stroke" cx="759.702" cy="362.65775" r="2.247250000000008" fill="rgb(235,235,235)" fill-opacity="0.15"/><circle vector-effect="non-scaling-stroke" cx="778.7185" cy="381.71850000000006" r="2.2814999999999372" fill="rgb(235,235,235)" fill-opacity="0.15"/><circle vector-effect="non-scaling-stroke" cx="770.7185" cy="358.129" r="2.2814999999999372" fill="rgb(235,235,235)" fill-opacity="0.15"/></g></g></svg>