<?xml version="1.0" encoding="UTF-8"?>
<svg version="1.1" viewBox="0 0 150 58" xmlns="http://www.w3.org/2000/svg">
 <defs>
  <linearGradient id="linearGradient1812" x1="89.441" x2="148.85" y1="138.01" y2="138.01" gradientTransform="matrix(4.1043,0,0,4.0933,-361.18,-437.09)" gradientUnits="userSpaceOnUse">
   <stop stop-color="#2155ba" offset="0"/>
   <stop stop-color="#173b82" offset="1"/>
  </linearGradient>
 </defs>
 <g transform="matrix(1.0649 0 0 1.0649 -91.759 -150.18)">
  <g transform="matrix(2.2083,0,0,2.2083,-98.05,-172.1)" fill="#2e2e2e" stroke="#2e2e2e">
   <circle cx="95.35" cy="154.15" r="11.472" stroke-linecap="round" stroke-linejoin="round" stroke-width=".91294"/>
   <circle cx="135.28" cy="154.15" r="11.472" stroke-linecap="round" stroke-linejoin="round" stroke-width=".91294"/>
   <path d="m94.415 142.37h41.03v23.61h-40.853z" stroke-width=".26798px"/>
  </g>
  <g transform="matrix(.18776 0 0 .18776 89.305 144.46)" stroke="#fff" stroke-linecap="round" stroke-linejoin="round">
   <circle cx="127.83" cy="127.83" r="121.91" fill="url(#linearGradient1812)" stroke-width="5.1235"/>
   <path d="m124.34 216.54c-3.5365-0.7038-8.2873-3.0901-11.754-5.9036-2.4822-2.0148-7.2876-6.7831-9.5523-9.4785-6.0478-7.1981-8.0346-12.974-8.037-23.363-0.0022-9.1249 1.4122-13.556 6.2792-19.674 1.0061-1.2646 4.323-4.9324 7.3708-8.1506 9.4988-10.03 10.923-11.777 10.552-12.946-0.32914-1.037-1.4904-0.79088-3.6019 0.76353-2.0205 1.4874-3.9065 3.205-11.403 10.384-7.357 7.0462-11.81 10.096-16.789 11.499-1.7522 0.49361-3.2236 0.57665-9.9629 0.5623-7.1662-0.0151-8.1442-0.0826-10.437-0.71888-6.0628-1.6822-9.5377-4.047-17.264-11.749-8.2136-8.1879-10.017-11.07-10.772-17.22-0.58587-4.7673 0.22397-9.3938 2.2743-12.993 1.4932-2.621 4.7332-6.4108 9.1988-10.76 7.2725-7.0824 11.124-9.5222 17.559-11.123 3.2446-0.80698 15.417-0.80457 18.863 0.0032 5.013 1.1758 8.7917 3.6334 16.028 10.424 12.545 11.773 14.014 12.986 15.505 12.812 2.1609-0.25244 0.56454-2.5857-7.7455-11.321-13.757-14.461-15.18-17.007-15.56-27.837-0.29237-8.3338 0.45359-12.928 2.9006-17.866 1.8271-3.6867 3.8758-6.3706 8.5473-11.197 6.5612-6.779 10.917-10.022 15.183-11.305 2.6657-0.80166 9.3658-0.8006 12.002 0.0022 4.5135 1.3738 8.0682 3.9304 14.578 10.484 6.6433 6.6886 9.8809 11.547 11.247 16.878 1.2807 4.996 1.3478 16.128 0.12497 20.758-0.27571 1.0437-0.99418 2.894-1.5966 4.1117-1.8613 3.762-4.1443 6.5246-14.034 16.981-2.6833 2.8372-5.4942 5.9413-6.2464 6.8981-2.6908 3.4226-1.2477 4.7395 2.3135 2.1113 1.0194-0.75234 5.127-4.4678 9.1279-8.2565 7.9459-7.5244 11.429-10.335 14.918-12.036 3.9591-1.9305 5.6643-2.2017 13.863-2.2047 8.049-0.0032 10.579 0.3914 14.806 2.3084 5.5413 2.5126 14.278 10.249 19.702 17.445 3.263 4.3297 4.4666 8.5322 4.1376 14.447-0.37124 6.674-3.1292 11.329-11.492 19.398-8.1684 7.8812-12.434 10.319-19.938 11.396-3.6751 0.52724-14.518 0.24401-17.021-0.44461-5.2386-1.4414-9.2233-4.2815-18.732-13.351-8.7306-8.3275-11.277-10.323-12.551-9.8338-0.71495 0.27433-0.62267 1.5516 0.18941 2.6215 1.2753 1.6802 4.8035 5.5779 9.3976 10.382 11.361 11.88 13.35 15.371 13.952 24.481 0.14183 2.147 0.14052 5.9974-3e-3 8.5566-0.40703 7.2626-1.7923 10.638-7.067 17.218-3.0532 3.8089-9.6777 10.535-12.472 12.664-2.5563 1.947-5.9228 3.4906-8.9939 4.1237-2.8728 0.59221-4.696 0.59699-7.5958 0.02zm6.5901-9.7602c3.7847-1.0078 8.0368-3.8599 12.835-8.6093 3.5523-3.5159 5.6928-6.4718 7.6871-10.616 1.8605-3.8657 2.702-7.1916 2.9159-11.523 0.27654-5.6013-0.78543-9.2815-3.8466-13.33-4.7003-6.2167-17.625-19.372-19.033-19.372-1.1546 0-0.16776 2.2882 2.4862 5.7651 4.0301 5.2797 1.9914 13.004-3.9533 14.979-2.7626 0.91757-5.2496 0.21472-7.7722-2.1965-3.7338-3.569-3.858-8.5131-0.33037-13.152 1.4504-1.9075 2.8077-4.3089 2.8077-4.9675 0-1.5063-2.4555 0.48026-9.4885 7.6764-8.71 8.912-11.749 12.745-12.939 16.322-1.2802 3.847-1.3631 10.205-0.19305 14.809 1.9183 7.5486 9.9184 17.517 17.948 22.364 3.6439 2.1996 7.2589 2.8153 10.875 1.8523zm-1.6181-50.305c1.4854-0.62065 1.7968-1.848 0.73756-2.9072-1.4544-1.4544-4.3234-1.2689-5.0503 0.32648-1.0486 2.3015 1.4306 3.785 4.3128 2.5808zm-44.231-2.6823c3.9524-0.81568 6.3266-2.0484 10.231-5.3126 6.9414-5.8024 17.434-16.658 16.914-17.499-0.35205-0.56962-2.5298 0.48252-5.3839 2.6011-3.2556 2.4167-6.3683 3.1082-9.5968 2.1321-1.7367-0.52509-4.5066-3.0084-5.3893-4.8318-1.4217-2.9368-0.62617-6.6066 1.9335-8.9191 1.9568-1.7678 3.8239-2.4961 6.425-2.5062 2.6886-0.0106 3.6025 0.34698 7.2886 2.8501 2.6657 1.8102 4.4179 2.6196 4.8138 2.2237 0.93258-0.93258-15.11-16.684-20.92-20.541-5.8011-3.8506-15.612-3.8622-23.511-0.0278-7.2319 3.5104-14.53 10.69-17.994 17.7-2.4366 4.932-2.5115 7.7556-0.32067 12.1 4.2378 8.4037 15.995 18.091 24.438 20.134 2.6876 0.65061 7.6381 0.60375 11.071-0.10477zm97.051-0.33409c3.2256-0.87279 7.7226-2.9949 10.682-5.041 2.7399-1.8941 7.7697-6.8728 10.179-10.076 3.3931-4.5104 4.7603-8.841 4.0349-12.78-1.3648-7.4117-11.134-17.994-20.251-21.936-7.4365-3.2155-15.117-3.4512-20.776-0.6376-1.2177 0.60542-3.7084 2.3497-5.535 3.8761-3.8253 3.1968-14.056 13.119-15.859 15.381-2.5457 3.1936-1.0985 3.1614 3.716-0.0827 3.5184-2.3708 5.5364-3.0676 8.0286-2.7725 4.694 0.55592 8.6093 4.8232 8.1516 8.8842-0.48387 4.2929-4.5292 7.8735-8.8653 7.847-2.5469-0.0156-4.2891-0.66734-6.925-2.5905-3.3476-2.4425-5.3261-3.2192-5.3261-2.091 0 1.8406 14.213 15.134 21.402 20.017 3.623 2.461 5.6492 2.9864 10.859 2.8158 2.7144-0.0889 4.7466-0.34403 6.4838-0.81407zm-51.957-20.627c1.5295-0.45823 3.0908-1.8546 3.0908-2.7642 0-1.0088-1.1671-1.2885-5.3768-1.2885-4.2998 0-5.3768 0.27167-5.3768 1.3563 0 0.87302 1.3502 2.2244 2.6884 2.691 1.301 0.45354 3.471 0.45594 4.9744 5e-3zm-28.555-2.4537c0.88299-0.88299 1.1507-2.7328 0.61837-4.2725-0.3584-1.0366-0.61171-1.2995-1.3315-1.382-1.1123-0.12755-1.6666 0.32223-2.1309 1.7292-0.64286 1.9479 0.359 4.5402 1.7547 4.5402 0.26095 0 0.75115-0.27674 1.0894-0.61492zm54.084 0c0.88298-0.88299 1.1507-2.7328 0.61837-4.2725-0.35839-1.0366-0.6117-1.2995-1.3315-1.382-1.1403-0.13074-1.7189 0.36473-2.1012 1.7993-0.54993 2.0638 0.41122 4.4702 1.7854 4.4702 0.22769 0 0.69069-0.27674 1.0289-0.61492zm-24.869-3.7849c0.83772-0.13774 1.7492-0.47655 2.0256-0.75289 0.45907-0.45907 0.457-0.57181-0.0241-1.3059-0.85962-1.3119-3.6725-3.0299-4.9609-3.0299-1.8862 0-6.0064 3.1217-5.5816 4.2288 0.10812 0.28165 0.79246 0.55176 1.7016 0.67155 0.83642 0.11021 1.7343 0.24598 1.9952 0.30174 0.90247 0.19279 3.327 0.13601 4.8441-0.11344zm6.149-19.11c7.0899-6.8781 13.997-14.795 15.498-17.765 1.1224-2.2204 1.6867-4.6545 1.8699-8.0652 0.48455-9.0212-2.9036-16.655-10.95-24.672-5.645-5.6245-10.724-8.7717-14.661-9.0853-4.6641-0.37148-11.645 3.5138-17.257 9.6041-5.9898 6.5005-9.623 13.582-10.467 20.4-0.72375 5.8496 0.70886 10.202 5.3503 16.256 4.6494 6.0639 16.398 17.862 17.787 17.862 0.42375 0 0.28676-1.2333-0.25641-2.3088-0.28116-0.55672-1.0768-1.7703-1.768-2.6968-1.9659-2.6352-2.5703-4.2764-2.5828-7.0132-0.0172-3.7965 1.5389-6.5076 4.6153-8.0406 3.285-1.637 7.4084-0.78619 9.8148 2.0251 2.9839 3.486 2.8522 8.5505-0.33193 12.768-1.5141 2.0054-2.5941 4.0645-2.5941 4.9457 0 0.62905 0.0364 0.63444 0.98259 0.14518 0.54043-0.27948 2.7679-2.2401 4.95-4.357zm-6.9606-5.6819c1.0771-1.0771 0.79385-2.1757-0.74987-2.9082-1.3299-0.63106-3.0383-0.4804-3.9545 0.34874-1.0233 0.92607-0.63602 2.8855 0.6718 3.399 1.0529 0.41335 3.2338-0.0405 4.0326-0.83949z" fill="#fff" stroke-width="1.5814"/>
   <circle cx="127.83" cy="127.83" r="109.36" fill="none" stroke-width="2.0788"/>
  </g>
  <text transform="scale(1.0406 .96095)" x="132.85458" y="188.06044" fill="#ffffff" font-family="Kardinal" font-size="40.219px" font-weight="800" stroke-width="1.0055" style="font-variant-caps:normal;font-variant-east-asian:normal;font-variant-ligatures:normal;font-variant-numeric:normal;line-height:1.25" xml:space="preserve"><tspan x="132.85458" y="188.06044" fill="#ffffff" font-family="Kardinal" font-size="40.219px" font-weight="800" stroke-width="1.0055" style="font-variant-caps:normal;font-variant-east-asian:normal;font-variant-ligatures:normal;font-variant-numeric:normal">XHG</tspan></text>
  <text transform="scale(.95488 1.0473)" x="144.39868" y="179.43773" fill="#ffffff" font-family="Kardinal" font-size="6.4105px" font-weight="800" stroke-width=".16026" style="font-variant-caps:normal;font-variant-east-asian:normal;font-variant-ligatures:normal;font-variant-numeric:normal;line-height:1.25" xml:space="preserve"><tspan x="144.39868" y="179.43773" fill="#ffffff" font-family="Kardinal" font-size="6.4105px" font-weight="800" stroke-width=".16026" style="font-variant-caps:normal;font-variant-east-asian:normal;font-variant-ligatures:normal;font-variant-numeric:normal">HYDRANGEA</tspan></text>
 </g>
</svg>
